<svg width="575.8" height="150.404" viewBox="0 0 575.8 150.404" xmlns="http://www.w3.org/2000/svg"><g id="svgGroup" stroke-linecap="round" fill-rule="evenodd" font-size="9pt" stroke="#ff00ff" stroke-width="0.25mm" fill="#ff00ff" style="stroke:#ff00ff;stroke-width:0.25mm;fill:#ff00ff"><path d="M 482 148 L 482 0 L 498 0 L 498 93.4 L 498.8 93.4 L 516.8 76.4 L 551.2 44.8 L 570.8 44.8 L 528 85.2 L 575.8 148 L 556 148 L 515.8 94.4 L 498 110.6 L 498 148 L 482 148 Z M 116.4 148 L 116.4 134.4 L 146.6 134.4 L 146.6 58.4 L 116.4 58.4 L 116.4 44.8 L 162.6 44.8 L 162.6 70.8 L 163.6 70.8 Q 166.8 58.6 175.7 51.7 Q 184.6 44.8 198.4 44.8 L 212.8 44.8 L 212.8 60.8 L 193.4 60.8 Q 179.6 60.8 171.1 68.8 Q 162.6 76.8 162.6 89.8 L 162.6 134.4 L 202.6 134.4 L 202.6 148 L 116.4 148 Z M 451 148 L 440 148 Q 430.6 148 426.6 143.2 Q 422.6 138.4 421.6 131.2 L 420.6 131.2 Q 417.2 140.2 409.7 145.3 Q 402.2 150.4 389.6 150.4 Q 373.4 150.4 363.8 142 Q 354.2 133.6 354.2 119 Q 354.2 104.6 364.7 96.8 Q 375.2 89 398.6 89 L 420.6 89 L 420.6 78.8 Q 420.6 67.4 414.2 61.7 Q 407.8 56 396 56 Q 385.6 56 379 60.1 Q 372.4 64.2 368.4 71.2 L 357.6 63.2 Q 359.6 59.2 363 55.4 Q 366.4 51.6 371.4 48.7 Q 376.4 45.8 382.8 44.1 Q 389.2 42.4 397 42.4 Q 415.2 42.4 425.9 51.6 Q 436.6 60.8 436.6 77.2 L 436.6 134 L 451 134 L 451 148 Z M 0 148 L 0 0 L 16 0 L 16 61.6 L 16.8 61.6 Q 26.8 42.4 48.6 42.4 Q 67.6 42.4 78.3 56.6 Q 89 70.8 89 96.4 Q 89 122 78.3 136.2 Q 67.6 150.4 48.6 150.4 Q 26.8 150.4 16.8 131.2 L 16 131.2 L 16 148 L 0 148 Z M 327.6 92.8 L 327.6 100.4 L 251.2 100.4 L 251.2 105.2 Q 251.2 112 253.4 117.8 Q 255.6 123.6 259.7 127.8 Q 263.8 132 269.7 134.3 Q 275.6 136.6 282.8 136.6 Q 293.2 136.6 300.8 131.8 Q 308.4 127 312.4 118.6 L 324.2 126.6 Q 319.6 137 308.9 143.7 Q 298.2 150.4 282.8 150.4 Q 271.6 150.4 262.7 146.6 Q 253.8 142.8 247.5 135.7 Q 241.2 128.6 237.8 118.7 Q 234.4 108.8 234.4 96.6 Q 234.4 84.2 237.9 74.2 Q 241.4 64.2 247.6 57.1 Q 253.8 50 262.5 46.2 Q 271.2 42.4 281.8 42.4 Q 292.2 42.4 300.7 46.2 Q 309.2 50 315.2 56.7 Q 321.2 63.4 324.4 72.6 Q 327.6 81.8 327.6 92.8 Z M 71.8 105.2 L 71.8 87.6 Q 71.8 73.6 64.1 65.1 Q 56.4 56.6 42.4 56.6 Q 37 56.6 32.2 58 Q 27.4 59.4 23.8 62.1 Q 20.2 64.8 18.1 68.7 Q 16 72.6 16 77.8 L 16 115 Q 16 120.2 18.1 124.1 Q 20.2 128 23.8 130.7 Q 27.4 133.4 32.2 134.8 Q 37 136.2 42.4 136.2 Q 56.4 136.2 64.1 127.7 Q 71.8 119.2 71.8 105.2 Z M 251.2 87 L 251.2 88.4 L 310.4 88.4 L 310.4 86.2 Q 310.4 79.4 308.3 73.8 Q 306.2 68.2 302.5 64.1 Q 298.8 60 293.5 57.8 Q 288.2 55.6 281.8 55.6 Q 275.2 55.6 269.6 58 Q 264 60.4 259.9 64.6 Q 255.8 68.8 253.5 74.5 Q 251.2 80.2 251.2 87 Z M 420.6 118 L 420.6 101 L 398.6 101 Q 384.2 101 377.6 105 Q 371 109 371 116.6 L 371 120.8 Q 371 128.8 376.7 132.9 Q 382.4 137 392.4 137 Q 398.6 137 403.7 135.5 Q 408.8 134 412.6 131.5 Q 416.4 129 418.5 125.5 Q 420.6 122 420.6 118 Z" vector-effect="non-scaling-stroke"/></g></svg>